<svg width="33" height="30" viewBox="0 0 33 30" fill="none" xmlns="http://www.w3.org/2000/svg">
<path d="M11.0625 29.25C12.3742 29.25 13.4375 28.1867 13.4375 26.875C13.4375 25.5633 12.3742 24.5 11.0625 24.5C9.75082 24.5 8.6875 25.5633 8.6875 26.875C8.6875 28.1867 9.75082 29.25 11.0625 29.25Z" fill="#C3BDB0"/>
<path d="M27.6875 29.25C28.9992 29.25 30.0625 28.1867 30.0625 26.875C30.0625 25.5633 28.9992 24.5 27.6875 24.5C26.3758 24.5 25.3125 25.5633 25.3125 26.875C25.3125 28.1867 26.3758 29.25 27.6875 29.25Z" fill="#C3BDB0"/>
<path d="M10.4524 18.5625H29.8488L32.6988 4.3125H7.93715L7.30852 0.75H0.375V3.125H5.31648L8.87899 23.3125H30.0625V20.9375H10.871L10.4524 18.5625Z" fill="#C3BDB0"/>
</svg>
